<mxfile host="app.diagrams.net" agent="Mozilla/5.0 (Windows NT 10.0; Win64; x64) AppleWebKit/537.36 (KHTML, like Gecko) Chrome/141.0.0.0 Safari/537.36" version="28.2.5">
  <diagram name="Página-1" id="9xwKT7UWdcwKdDa5wmCm">
    <mxGraphModel dx="2216" dy="914" grid="1" gridSize="10" guides="1" tooltips="1" connect="1" arrows="1" fold="1" page="1" pageScale="1" pageWidth="1169" pageHeight="827" math="0" shadow="0">
      <root>
        <mxCell id="0" />
        <mxCell id="1" parent="0" />
        <mxCell id="ja1WpsGNbCiEYwsB8e6B-7" value="" style="edgeStyle=orthogonalEdgeStyle;rounded=0;orthogonalLoop=1;jettySize=auto;html=1;entryX=0;entryY=0.5;entryDx=0;entryDy=0;" parent="1" source="ja1WpsGNbCiEYwsB8e6B-2" target="ja1WpsGNbCiEYwsB8e6B-6" edge="1">
          <mxGeometry relative="1" as="geometry">
            <mxPoint x="200" y="66" as="targetPoint" />
          </mxGeometry>
        </mxCell>
        <mxCell id="ja1WpsGNbCiEYwsB8e6B-2" value="I" style="ellipse;whiteSpace=wrap;html=1;aspect=fixed;fillColor=#f5f5f5;strokeColor=#666666;strokeWidth=5;perimeterSpacing=1;sketch=1;curveFitting=1;jiggle=2;fontFamily=Lucida Console;fontStyle=1;fontSize=18;verticalAlign=middle;labelBackgroundColor=none;labelBorderColor=none;textShadow=1;shadow=1;fontColor=#333333;" parent="1" vertex="1">
          <mxGeometry x="30" y="20" width="90" height="90" as="geometry" />
        </mxCell>
        <mxCell id="ja1WpsGNbCiEYwsB8e6B-3" value="F" style="ellipse;whiteSpace=wrap;html=1;aspect=fixed;fillColor=#f8cecc;strokeColor=#b85450;strokeWidth=5;perimeterSpacing=1;sketch=1;curveFitting=1;jiggle=2;fontFamily=Lucida Console;fontStyle=1;fontSize=18;verticalAlign=middle;labelBackgroundColor=none;labelBorderColor=none;textShadow=1;shadow=1;" parent="1" vertex="1">
          <mxGeometry x="1400" y="578.5" width="80" height="80" as="geometry" />
        </mxCell>
        <mxCell id="ja1WpsGNbCiEYwsB8e6B-33" value="" style="edgeStyle=orthogonalEdgeStyle;rounded=0;orthogonalLoop=1;jettySize=auto;html=1;" parent="1" source="ja1WpsGNbCiEYwsB8e6B-6" target="ja1WpsGNbCiEYwsB8e6B-32" edge="1">
          <mxGeometry relative="1" as="geometry" />
        </mxCell>
        <mxCell id="ja1WpsGNbCiEYwsB8e6B-6" value="ESCREVER &quot;Digite um dia de semana em numero&quot;" style="shape=parallelogram;perimeter=parallelogramPerimeter;whiteSpace=wrap;html=1;fixedSize=1;fontSize=18;fontFamily=Lucida Console;fillColor=#d5e8d4;strokeColor=#82b366;strokeWidth=5;sketch=1;curveFitting=1;jiggle=2;fontStyle=1;labelBackgroundColor=none;labelBorderColor=none;shadow=1;" parent="1" vertex="1">
          <mxGeometry x="140" y="23" width="360" height="82.5" as="geometry" />
        </mxCell>
        <mxCell id="ja1WpsGNbCiEYwsB8e6B-97" style="edgeStyle=orthogonalEdgeStyle;rounded=0;orthogonalLoop=1;jettySize=auto;html=1;entryX=0.5;entryY=0;entryDx=0;entryDy=0;" parent="1" source="ja1WpsGNbCiEYwsB8e6B-10" target="ja1WpsGNbCiEYwsB8e6B-95" edge="1">
          <mxGeometry relative="1" as="geometry">
            <Array as="points">
              <mxPoint x="1310" y="64.5" />
            </Array>
          </mxGeometry>
        </mxCell>
        <mxCell id="ja1WpsGNbCiEYwsB8e6B-10" value="ESCREVER &quot;Dia 1 e Segunda-feira&quot;" style="shape=parallelogram;perimeter=parallelogramPerimeter;whiteSpace=wrap;html=1;fixedSize=1;fontSize=15;fontFamily=Lucida Console;fillColor=#e1d5e7;strokeColor=#9673a6;strokeWidth=5;sketch=1;curveFitting=1;jiggle=2;fontStyle=1;labelBackgroundColor=none;labelBorderColor=none;shadow=1;" parent="1" vertex="1">
          <mxGeometry x="920" y="23" width="360" height="82.5" as="geometry" />
        </mxCell>
        <mxCell id="ja1WpsGNbCiEYwsB8e6B-98" style="edgeStyle=orthogonalEdgeStyle;rounded=0;orthogonalLoop=1;jettySize=auto;html=1;entryX=0.5;entryY=0;entryDx=0;entryDy=0;" parent="1" source="ja1WpsGNbCiEYwsB8e6B-11" target="ja1WpsGNbCiEYwsB8e6B-95" edge="1">
          <mxGeometry relative="1" as="geometry" />
        </mxCell>
        <mxCell id="ja1WpsGNbCiEYwsB8e6B-11" value="ESCREVER &quot;Dia 2 e Terça-feira&quot;" style="shape=parallelogram;perimeter=parallelogramPerimeter;whiteSpace=wrap;html=1;fixedSize=1;fontSize=15;fontFamily=Lucida Console;fillColor=#e1d5e7;strokeColor=#9673a6;strokeWidth=5;sketch=1;curveFitting=1;jiggle=2;fontStyle=1;labelBackgroundColor=none;labelBorderColor=none;shadow=1;" parent="1" vertex="1">
          <mxGeometry x="900" y="105.5" width="360" height="82.5" as="geometry" />
        </mxCell>
        <mxCell id="ja1WpsGNbCiEYwsB8e6B-99" style="edgeStyle=orthogonalEdgeStyle;rounded=0;orthogonalLoop=1;jettySize=auto;html=1;entryX=0.5;entryY=0;entryDx=0;entryDy=0;" parent="1" source="ja1WpsGNbCiEYwsB8e6B-12" target="ja1WpsGNbCiEYwsB8e6B-95" edge="1">
          <mxGeometry relative="1" as="geometry" />
        </mxCell>
        <mxCell id="ja1WpsGNbCiEYwsB8e6B-12" value="ESCREVER &quot;Dia 3 e Quarta-feira&quot;" style="shape=parallelogram;perimeter=parallelogramPerimeter;whiteSpace=wrap;html=1;fixedSize=1;fontSize=15;fontFamily=Lucida Console;fillColor=#e1d5e7;strokeColor=#9673a6;strokeWidth=5;sketch=1;curveFitting=1;jiggle=2;fontStyle=1;labelBackgroundColor=none;labelBorderColor=none;shadow=1;" parent="1" vertex="1">
          <mxGeometry x="880" y="188" width="360" height="82.5" as="geometry" />
        </mxCell>
        <mxCell id="ja1WpsGNbCiEYwsB8e6B-100" style="edgeStyle=orthogonalEdgeStyle;rounded=0;orthogonalLoop=1;jettySize=auto;html=1;entryX=0.5;entryY=0;entryDx=0;entryDy=0;" parent="1" source="ja1WpsGNbCiEYwsB8e6B-13" target="ja1WpsGNbCiEYwsB8e6B-95" edge="1">
          <mxGeometry relative="1" as="geometry" />
        </mxCell>
        <mxCell id="ja1WpsGNbCiEYwsB8e6B-13" value="ESCREVER &quot;Dia 4 e Quinta-feira&quot;" style="shape=parallelogram;perimeter=parallelogramPerimeter;whiteSpace=wrap;html=1;fixedSize=1;fontSize=15;fontFamily=Lucida Console;fillColor=#e1d5e7;strokeColor=#9673a6;strokeWidth=5;sketch=1;curveFitting=1;jiggle=2;fontStyle=1;labelBackgroundColor=none;labelBorderColor=none;shadow=1;" parent="1" vertex="1">
          <mxGeometry x="860" y="270.5" width="360" height="82.5" as="geometry" />
        </mxCell>
        <mxCell id="ja1WpsGNbCiEYwsB8e6B-101" style="edgeStyle=orthogonalEdgeStyle;rounded=0;orthogonalLoop=1;jettySize=auto;html=1;entryX=0.5;entryY=0;entryDx=0;entryDy=0;" parent="1" source="ja1WpsGNbCiEYwsB8e6B-14" target="ja1WpsGNbCiEYwsB8e6B-95" edge="1">
          <mxGeometry relative="1" as="geometry" />
        </mxCell>
        <mxCell id="ja1WpsGNbCiEYwsB8e6B-14" value="ESCREVER &quot;Dia 5 e Sexta-feira&quot;" style="shape=parallelogram;perimeter=parallelogramPerimeter;whiteSpace=wrap;html=1;fixedSize=1;fontSize=15;fontFamily=Lucida Console;fillColor=#e1d5e7;strokeColor=#9673a6;strokeWidth=5;sketch=1;curveFitting=1;jiggle=2;fontStyle=1;labelBackgroundColor=none;labelBorderColor=none;shadow=1;" parent="1" vertex="1">
          <mxGeometry x="840" y="353" width="360" height="82.5" as="geometry" />
        </mxCell>
        <mxCell id="ja1WpsGNbCiEYwsB8e6B-102" style="edgeStyle=orthogonalEdgeStyle;rounded=0;orthogonalLoop=1;jettySize=auto;html=1;" parent="1" source="ja1WpsGNbCiEYwsB8e6B-15" edge="1">
          <mxGeometry relative="1" as="geometry">
            <mxPoint x="1310" y="578.5" as="targetPoint" />
          </mxGeometry>
        </mxCell>
        <mxCell id="ja1WpsGNbCiEYwsB8e6B-15" value="ESCREVER &quot;Dia 6 e Sábado&quot;" style="shape=parallelogram;perimeter=parallelogramPerimeter;whiteSpace=wrap;html=1;fixedSize=1;fontSize=15;fontFamily=Lucida Console;fillColor=#e1d5e7;strokeColor=#9673a6;strokeWidth=5;sketch=1;curveFitting=1;jiggle=2;fontStyle=1;labelBackgroundColor=none;labelBorderColor=none;shadow=1;" parent="1" vertex="1">
          <mxGeometry x="820" y="435.5" width="360" height="82.5" as="geometry" />
        </mxCell>
        <mxCell id="ja1WpsGNbCiEYwsB8e6B-103" style="edgeStyle=orthogonalEdgeStyle;rounded=0;orthogonalLoop=1;jettySize=auto;html=1;entryX=0.5;entryY=0;entryDx=0;entryDy=0;" parent="1" source="ja1WpsGNbCiEYwsB8e6B-16" target="ja1WpsGNbCiEYwsB8e6B-95" edge="1">
          <mxGeometry relative="1" as="geometry" />
        </mxCell>
        <mxCell id="ja1WpsGNbCiEYwsB8e6B-16" value="ESCREVER &quot;Dia 7 e Domingo&quot;" style="shape=parallelogram;perimeter=parallelogramPerimeter;whiteSpace=wrap;html=1;fixedSize=1;fontSize=15;fontFamily=Lucida Console;fillColor=#e1d5e7;strokeColor=#9673a6;strokeWidth=5;sketch=1;curveFitting=1;jiggle=2;fontStyle=1;labelBackgroundColor=none;labelBorderColor=none;shadow=1;" parent="1" vertex="1">
          <mxGeometry x="800" y="518" width="360" height="82.5" as="geometry" />
        </mxCell>
        <mxCell id="ja1WpsGNbCiEYwsB8e6B-36" value="" style="edgeStyle=orthogonalEdgeStyle;rounded=0;orthogonalLoop=1;jettySize=auto;html=1;" parent="1" source="ja1WpsGNbCiEYwsB8e6B-32" target="ja1WpsGNbCiEYwsB8e6B-34" edge="1">
          <mxGeometry relative="1" as="geometry" />
        </mxCell>
        <mxCell id="ja1WpsGNbCiEYwsB8e6B-32" value="Ler D" style="shape=parallelogram;perimeter=parallelogramPerimeter;whiteSpace=wrap;html=1;fixedSize=1;fontSize=18;fontFamily=Lucida Console;fillColor=#b1ddf0;strokeColor=#10739e;strokeWidth=5;sketch=1;curveFitting=1;jiggle=2;fontStyle=1;labelBackgroundColor=none;labelBorderColor=none;shadow=1;" parent="1" vertex="1">
          <mxGeometry x="260" y="148.5" width="120" height="48.25" as="geometry" />
        </mxCell>
        <mxCell id="ja1WpsGNbCiEYwsB8e6B-106" style="edgeStyle=orthogonalEdgeStyle;rounded=0;orthogonalLoop=1;jettySize=auto;html=1;entryX=0;entryY=0.5;entryDx=0;entryDy=0;" parent="1" source="ja1WpsGNbCiEYwsB8e6B-34" target="ja1WpsGNbCiEYwsB8e6B-37" edge="1">
          <mxGeometry relative="1" as="geometry" />
        </mxCell>
        <mxCell id="ja1WpsGNbCiEYwsB8e6B-107" value="Não" style="edgeLabel;html=1;align=center;verticalAlign=middle;resizable=0;points=[];" parent="ja1WpsGNbCiEYwsB8e6B-106" vertex="1" connectable="0">
          <mxGeometry x="-0.0236" relative="1" as="geometry">
            <mxPoint as="offset" />
          </mxGeometry>
        </mxCell>
        <mxCell id="ja1WpsGNbCiEYwsB8e6B-110" value="" style="edgeStyle=orthogonalEdgeStyle;rounded=0;orthogonalLoop=1;jettySize=auto;html=1;entryX=0.528;entryY=-0.024;entryDx=0;entryDy=0;entryPerimeter=0;" parent="1" source="ja1WpsGNbCiEYwsB8e6B-34" target="ja1WpsGNbCiEYwsB8e6B-111" edge="1">
          <mxGeometry relative="1" as="geometry">
            <mxPoint x="460" y="248.5" as="targetPoint" />
          </mxGeometry>
        </mxCell>
        <mxCell id="ja1WpsGNbCiEYwsB8e6B-113" value="Sim" style="edgeLabel;html=1;align=center;verticalAlign=middle;resizable=0;points=[];" parent="ja1WpsGNbCiEYwsB8e6B-110" vertex="1" connectable="0">
          <mxGeometry x="0.0174" y="-4" relative="1" as="geometry">
            <mxPoint as="offset" />
          </mxGeometry>
        </mxCell>
        <mxCell id="ja1WpsGNbCiEYwsB8e6B-34" value="D&amp;gt;7 OR&lt;div&gt;D&amp;lt;1&lt;/div&gt;" style="rhombus;whiteSpace=wrap;html=1;fontSize=13;fontFamily=Lucida Console;fillColor=#b1ddf0;strokeColor=#10739e;strokeWidth=5;sketch=1;curveFitting=1;jiggle=2;fontStyle=1;labelBackgroundColor=none;labelBorderColor=none;shadow=1;" parent="1" vertex="1">
          <mxGeometry x="420" y="132.63" width="80" height="80" as="geometry" />
        </mxCell>
        <mxCell id="ja1WpsGNbCiEYwsB8e6B-52" style="edgeStyle=orthogonalEdgeStyle;rounded=0;orthogonalLoop=1;jettySize=auto;html=1;entryX=0;entryY=0.5;entryDx=0;entryDy=0;" parent="1" source="ja1WpsGNbCiEYwsB8e6B-37" target="ja1WpsGNbCiEYwsB8e6B-42" edge="1">
          <mxGeometry relative="1" as="geometry">
            <Array as="points">
              <mxPoint x="640" y="143.5" />
            </Array>
          </mxGeometry>
        </mxCell>
        <mxCell id="ja1WpsGNbCiEYwsB8e6B-77" value="Não" style="edgeLabel;html=1;align=center;verticalAlign=middle;resizable=0;points=[];" parent="ja1WpsGNbCiEYwsB8e6B-52" vertex="1" connectable="0">
          <mxGeometry x="-0.2933" y="2" relative="1" as="geometry">
            <mxPoint as="offset" />
          </mxGeometry>
        </mxCell>
        <mxCell id="ja1WpsGNbCiEYwsB8e6B-79" style="edgeStyle=orthogonalEdgeStyle;rounded=0;orthogonalLoop=1;jettySize=auto;html=1;entryX=0;entryY=0.5;entryDx=0;entryDy=0;" parent="1" source="ja1WpsGNbCiEYwsB8e6B-37" target="ja1WpsGNbCiEYwsB8e6B-10" edge="1">
          <mxGeometry relative="1" as="geometry" />
        </mxCell>
        <mxCell id="ja1WpsGNbCiEYwsB8e6B-94" value="Sim" style="edgeLabel;html=1;align=center;verticalAlign=middle;resizable=0;points=[];" parent="ja1WpsGNbCiEYwsB8e6B-79" vertex="1" connectable="0">
          <mxGeometry x="-0.8006" y="3" relative="1" as="geometry">
            <mxPoint y="1" as="offset" />
          </mxGeometry>
        </mxCell>
        <mxCell id="ja1WpsGNbCiEYwsB8e6B-37" value="D==1" style="rhombus;whiteSpace=wrap;html=1;fontSize=13;fontFamily=Lucida Console;fillColor=#fff2cc;strokeColor=#d6b656;strokeWidth=5;sketch=1;curveFitting=1;jiggle=2;fontStyle=1;labelBackgroundColor=none;labelBorderColor=none;shadow=1;" parent="1" vertex="1">
          <mxGeometry x="620" y="20" width="90" height="90" as="geometry" />
        </mxCell>
        <mxCell id="ja1WpsGNbCiEYwsB8e6B-53" style="edgeStyle=orthogonalEdgeStyle;rounded=0;orthogonalLoop=1;jettySize=auto;html=1;entryX=1;entryY=0.5;entryDx=0;entryDy=0;" parent="1" source="ja1WpsGNbCiEYwsB8e6B-42" target="ja1WpsGNbCiEYwsB8e6B-43" edge="1">
          <mxGeometry relative="1" as="geometry">
            <Array as="points">
              <mxPoint x="730" y="225.5" />
            </Array>
          </mxGeometry>
        </mxCell>
        <mxCell id="ja1WpsGNbCiEYwsB8e6B-76" value="Não" style="edgeLabel;html=1;align=center;verticalAlign=middle;resizable=0;points=[];" parent="ja1WpsGNbCiEYwsB8e6B-53" vertex="1" connectable="0">
          <mxGeometry x="-0.3576" y="-3" relative="1" as="geometry">
            <mxPoint y="1" as="offset" />
          </mxGeometry>
        </mxCell>
        <mxCell id="ja1WpsGNbCiEYwsB8e6B-80" style="edgeStyle=orthogonalEdgeStyle;rounded=0;orthogonalLoop=1;jettySize=auto;html=1;entryX=0;entryY=0.5;entryDx=0;entryDy=0;" parent="1" source="ja1WpsGNbCiEYwsB8e6B-42" target="ja1WpsGNbCiEYwsB8e6B-11" edge="1">
          <mxGeometry relative="1" as="geometry" />
        </mxCell>
        <mxCell id="ja1WpsGNbCiEYwsB8e6B-93" value="Sim" style="edgeLabel;html=1;align=center;verticalAlign=middle;resizable=0;points=[];" parent="ja1WpsGNbCiEYwsB8e6B-80" vertex="1" connectable="0">
          <mxGeometry x="-0.7503" y="3" relative="1" as="geometry">
            <mxPoint x="-1" y="1" as="offset" />
          </mxGeometry>
        </mxCell>
        <mxCell id="ja1WpsGNbCiEYwsB8e6B-42" value="D==2" style="rhombus;whiteSpace=wrap;html=1;fontSize=13;fontFamily=Lucida Console;fillColor=#fff2cc;strokeColor=#d6b656;strokeWidth=5;sketch=1;curveFitting=1;jiggle=2;fontStyle=1;labelBackgroundColor=none;labelBorderColor=none;shadow=1;" parent="1" vertex="1">
          <mxGeometry x="660" y="102" width="90" height="90" as="geometry" />
        </mxCell>
        <mxCell id="ja1WpsGNbCiEYwsB8e6B-54" style="edgeStyle=orthogonalEdgeStyle;rounded=0;orthogonalLoop=1;jettySize=auto;html=1;entryX=0;entryY=0.5;entryDx=0;entryDy=0;" parent="1" source="ja1WpsGNbCiEYwsB8e6B-43" target="ja1WpsGNbCiEYwsB8e6B-44" edge="1">
          <mxGeometry relative="1" as="geometry">
            <Array as="points">
              <mxPoint x="640" y="308.5" />
            </Array>
          </mxGeometry>
        </mxCell>
        <mxCell id="ja1WpsGNbCiEYwsB8e6B-75" value="Não" style="edgeLabel;html=1;align=center;verticalAlign=middle;resizable=0;points=[];" parent="ja1WpsGNbCiEYwsB8e6B-54" vertex="1" connectable="0">
          <mxGeometry x="-0.2242" relative="1" as="geometry">
            <mxPoint as="offset" />
          </mxGeometry>
        </mxCell>
        <mxCell id="ja1WpsGNbCiEYwsB8e6B-81" style="edgeStyle=orthogonalEdgeStyle;rounded=0;orthogonalLoop=1;jettySize=auto;html=1;entryX=0;entryY=0.5;entryDx=0;entryDy=0;" parent="1" source="ja1WpsGNbCiEYwsB8e6B-43" target="ja1WpsGNbCiEYwsB8e6B-12" edge="1">
          <mxGeometry relative="1" as="geometry">
            <Array as="points">
              <mxPoint x="798" y="238.5" />
              <mxPoint x="798" y="229.5" />
            </Array>
          </mxGeometry>
        </mxCell>
        <mxCell id="ja1WpsGNbCiEYwsB8e6B-92" value="Sim" style="edgeLabel;html=1;align=center;verticalAlign=middle;resizable=0;points=[];" parent="ja1WpsGNbCiEYwsB8e6B-81" vertex="1" connectable="0">
          <mxGeometry x="-0.5549" y="-2" relative="1" as="geometry">
            <mxPoint as="offset" />
          </mxGeometry>
        </mxCell>
        <mxCell id="ja1WpsGNbCiEYwsB8e6B-43" value="D==3" style="rhombus;whiteSpace=wrap;html=1;fontSize=13;fontFamily=Lucida Console;fillColor=#fff2cc;strokeColor=#d6b656;strokeWidth=5;sketch=1;curveFitting=1;jiggle=2;fontStyle=1;labelBackgroundColor=none;labelBorderColor=none;shadow=1;" parent="1" vertex="1">
          <mxGeometry x="620" y="180.5" width="90" height="90" as="geometry" />
        </mxCell>
        <mxCell id="ja1WpsGNbCiEYwsB8e6B-57" style="edgeStyle=orthogonalEdgeStyle;rounded=0;orthogonalLoop=1;jettySize=auto;html=1;entryX=1;entryY=0.5;entryDx=0;entryDy=0;" parent="1" source="ja1WpsGNbCiEYwsB8e6B-44" target="ja1WpsGNbCiEYwsB8e6B-45" edge="1">
          <mxGeometry relative="1" as="geometry">
            <Array as="points">
              <mxPoint x="730" y="390.5" />
            </Array>
          </mxGeometry>
        </mxCell>
        <mxCell id="ja1WpsGNbCiEYwsB8e6B-74" value="Não" style="edgeLabel;html=1;align=center;verticalAlign=middle;resizable=0;points=[];" parent="ja1WpsGNbCiEYwsB8e6B-57" vertex="1" connectable="0">
          <mxGeometry x="-0.3091" y="3" relative="1" as="geometry">
            <mxPoint y="1" as="offset" />
          </mxGeometry>
        </mxCell>
        <mxCell id="ja1WpsGNbCiEYwsB8e6B-82" value="" style="edgeStyle=orthogonalEdgeStyle;rounded=0;orthogonalLoop=1;jettySize=auto;html=1;" parent="1" source="ja1WpsGNbCiEYwsB8e6B-44" target="ja1WpsGNbCiEYwsB8e6B-13" edge="1">
          <mxGeometry relative="1" as="geometry">
            <Array as="points">
              <mxPoint x="780" y="311.5" />
              <mxPoint x="780" y="311.5" />
            </Array>
          </mxGeometry>
        </mxCell>
        <mxCell id="ja1WpsGNbCiEYwsB8e6B-91" value="Sim" style="edgeLabel;html=1;align=center;verticalAlign=middle;resizable=0;points=[];" parent="ja1WpsGNbCiEYwsB8e6B-82" vertex="1" connectable="0">
          <mxGeometry x="-0.6358" y="1" relative="1" as="geometry">
            <mxPoint as="offset" />
          </mxGeometry>
        </mxCell>
        <mxCell id="ja1WpsGNbCiEYwsB8e6B-44" value="D==4" style="rhombus;whiteSpace=wrap;html=1;fontSize=13;fontFamily=Lucida Console;fillColor=#fff2cc;strokeColor=#d6b656;strokeWidth=5;sketch=1;curveFitting=1;jiggle=2;fontStyle=1;labelBackgroundColor=none;labelBorderColor=none;shadow=1;" parent="1" vertex="1">
          <mxGeometry x="660" y="263" width="90" height="90" as="geometry" />
        </mxCell>
        <mxCell id="ja1WpsGNbCiEYwsB8e6B-58" style="edgeStyle=orthogonalEdgeStyle;rounded=0;orthogonalLoop=1;jettySize=auto;html=1;entryX=0;entryY=0.5;entryDx=0;entryDy=0;" parent="1" source="ja1WpsGNbCiEYwsB8e6B-45" target="ja1WpsGNbCiEYwsB8e6B-46" edge="1">
          <mxGeometry relative="1" as="geometry">
            <Array as="points">
              <mxPoint x="640" y="473.5" />
            </Array>
          </mxGeometry>
        </mxCell>
        <mxCell id="ja1WpsGNbCiEYwsB8e6B-73" value="Não" style="edgeLabel;html=1;align=center;verticalAlign=middle;resizable=0;points=[];" parent="ja1WpsGNbCiEYwsB8e6B-58" vertex="1" connectable="0">
          <mxGeometry x="-0.4909" y="2" relative="1" as="geometry">
            <mxPoint as="offset" />
          </mxGeometry>
        </mxCell>
        <mxCell id="ja1WpsGNbCiEYwsB8e6B-83" style="edgeStyle=orthogonalEdgeStyle;rounded=0;orthogonalLoop=1;jettySize=auto;html=1;" parent="1" source="ja1WpsGNbCiEYwsB8e6B-45" target="ja1WpsGNbCiEYwsB8e6B-14" edge="1">
          <mxGeometry relative="1" as="geometry">
            <Array as="points">
              <mxPoint x="770" y="398.5" />
              <mxPoint x="770" y="394.5" />
            </Array>
          </mxGeometry>
        </mxCell>
        <mxCell id="ja1WpsGNbCiEYwsB8e6B-90" value="Sim" style="edgeLabel;html=1;align=center;verticalAlign=middle;resizable=0;points=[];" parent="ja1WpsGNbCiEYwsB8e6B-83" vertex="1" connectable="0">
          <mxGeometry x="-0.4998" y="4" relative="1" as="geometry">
            <mxPoint as="offset" />
          </mxGeometry>
        </mxCell>
        <mxCell id="ja1WpsGNbCiEYwsB8e6B-45" value="D==5" style="rhombus;whiteSpace=wrap;html=1;fontSize=13;fontFamily=Lucida Console;fillColor=#fff2cc;strokeColor=#d6b656;strokeWidth=5;sketch=1;curveFitting=1;jiggle=2;fontStyle=1;labelBackgroundColor=none;labelBorderColor=none;shadow=1;" parent="1" vertex="1">
          <mxGeometry x="620" y="345.5" width="90" height="90" as="geometry" />
        </mxCell>
        <mxCell id="ja1WpsGNbCiEYwsB8e6B-59" style="edgeStyle=orthogonalEdgeStyle;rounded=0;orthogonalLoop=1;jettySize=auto;html=1;entryX=1;entryY=0.5;entryDx=0;entryDy=0;" parent="1" source="ja1WpsGNbCiEYwsB8e6B-46" target="ja1WpsGNbCiEYwsB8e6B-47" edge="1">
          <mxGeometry relative="1" as="geometry">
            <Array as="points">
              <mxPoint x="730" y="555.5" />
            </Array>
          </mxGeometry>
        </mxCell>
        <mxCell id="ja1WpsGNbCiEYwsB8e6B-72" value="Não" style="edgeLabel;html=1;align=center;verticalAlign=middle;resizable=0;points=[];" parent="ja1WpsGNbCiEYwsB8e6B-59" vertex="1" connectable="0">
          <mxGeometry x="-0.1636" y="-2" relative="1" as="geometry">
            <mxPoint as="offset" />
          </mxGeometry>
        </mxCell>
        <mxCell id="ja1WpsGNbCiEYwsB8e6B-84" style="edgeStyle=orthogonalEdgeStyle;rounded=0;orthogonalLoop=1;jettySize=auto;html=1;entryX=0;entryY=0.5;entryDx=0;entryDy=0;" parent="1" source="ja1WpsGNbCiEYwsB8e6B-46" target="ja1WpsGNbCiEYwsB8e6B-15" edge="1">
          <mxGeometry relative="1" as="geometry">
            <Array as="points">
              <mxPoint x="770" y="476.5" />
              <mxPoint x="770" y="476.5" />
            </Array>
          </mxGeometry>
        </mxCell>
        <mxCell id="ja1WpsGNbCiEYwsB8e6B-89" value="Sim" style="edgeLabel;html=1;align=center;verticalAlign=middle;resizable=0;points=[];" parent="ja1WpsGNbCiEYwsB8e6B-84" vertex="1" connectable="0">
          <mxGeometry x="-0.5808" y="1" relative="1" as="geometry">
            <mxPoint as="offset" />
          </mxGeometry>
        </mxCell>
        <mxCell id="ja1WpsGNbCiEYwsB8e6B-46" value="D==6" style="rhombus;whiteSpace=wrap;html=1;fontSize=13;fontFamily=Lucida Console;fillColor=#fff2cc;strokeColor=#d6b656;strokeWidth=5;sketch=1;curveFitting=1;jiggle=2;fontStyle=1;labelBackgroundColor=none;labelBorderColor=none;shadow=1;" parent="1" vertex="1">
          <mxGeometry x="660" y="428" width="90" height="90" as="geometry" />
        </mxCell>
        <mxCell id="ja1WpsGNbCiEYwsB8e6B-85" style="edgeStyle=orthogonalEdgeStyle;rounded=0;orthogonalLoop=1;jettySize=auto;html=1;" parent="1" source="ja1WpsGNbCiEYwsB8e6B-47" target="ja1WpsGNbCiEYwsB8e6B-16" edge="1">
          <mxGeometry relative="1" as="geometry">
            <Array as="points">
              <mxPoint x="755" y="568.5" />
              <mxPoint x="755" y="559.5" />
            </Array>
          </mxGeometry>
        </mxCell>
        <mxCell id="ja1WpsGNbCiEYwsB8e6B-86" value="Sim" style="edgeLabel;html=1;align=center;verticalAlign=middle;resizable=0;points=[];" parent="ja1WpsGNbCiEYwsB8e6B-85" vertex="1" connectable="0">
          <mxGeometry x="-0.508" y="1" relative="1" as="geometry">
            <mxPoint as="offset" />
          </mxGeometry>
        </mxCell>
        <mxCell id="ja1WpsGNbCiEYwsB8e6B-47" value="D==7" style="rhombus;whiteSpace=wrap;html=1;fontSize=13;fontFamily=Lucida Console;fillColor=#fff2cc;strokeColor=#d6b656;strokeWidth=5;sketch=1;curveFitting=1;jiggle=2;fontStyle=1;labelBackgroundColor=none;labelBorderColor=none;shadow=1;" parent="1" vertex="1">
          <mxGeometry x="620" y="510.5" width="90" height="90" as="geometry" />
        </mxCell>
        <mxCell id="ja1WpsGNbCiEYwsB8e6B-199" style="edgeStyle=orthogonalEdgeStyle;rounded=0;orthogonalLoop=1;jettySize=auto;html=1;entryX=0;entryY=0.5;entryDx=0;entryDy=0;" parent="1" source="ja1WpsGNbCiEYwsB8e6B-95" target="ja1WpsGNbCiEYwsB8e6B-3" edge="1">
          <mxGeometry relative="1" as="geometry" />
        </mxCell>
        <mxCell id="ja1WpsGNbCiEYwsB8e6B-95" value="" style="ellipse;whiteSpace=wrap;html=1;aspect=fixed;labelBackgroundColor=default;labelBorderColor=default;textShadow=1;sketch=1;curveFitting=1;jiggle=2;shadow=1;fillColor=#d0cee2;strokeColor=#56517e;" parent="1" vertex="1">
          <mxGeometry x="1270" y="578.5" width="80" height="80" as="geometry" />
        </mxCell>
        <mxCell id="ja1WpsGNbCiEYwsB8e6B-198" style="edgeStyle=orthogonalEdgeStyle;rounded=0;orthogonalLoop=1;jettySize=auto;html=1;entryX=0;entryY=0.5;entryDx=0;entryDy=0;" parent="1" source="ja1WpsGNbCiEYwsB8e6B-111" target="ja1WpsGNbCiEYwsB8e6B-32" edge="1">
          <mxGeometry relative="1" as="geometry">
            <mxPoint x="160" y="168.5" as="targetPoint" />
            <Array as="points">
              <mxPoint x="150" y="299.5" />
              <mxPoint x="150" y="172.5" />
            </Array>
          </mxGeometry>
        </mxCell>
        <mxCell id="ja1WpsGNbCiEYwsB8e6B-111" value="ESCREVER &quot;Numero invalido, digite um numero entre 1 a 7&quot;" style="shape=parallelogram;perimeter=parallelogramPerimeter;whiteSpace=wrap;html=1;fixedSize=1;fontSize=18;fontFamily=Lucida Console;fillColor=#d5e8d4;strokeColor=#82b366;strokeWidth=5;sketch=1;curveFitting=1;jiggle=2;fontStyle=1;labelBackgroundColor=none;labelBorderColor=none;shadow=1;" parent="1" vertex="1">
          <mxGeometry x="190" y="258.5" width="360" height="82.5" as="geometry" />
        </mxCell>
        <mxCell id="lKpUpEgInYRRzoMU6R0F-3" value="7º Fluxograma" style="text;html=1;align=center;verticalAlign=middle;resizable=0;points=[];autosize=1;strokeColor=none;fillColor=none;" vertex="1" parent="1">
          <mxGeometry x="700" y="640" width="100" height="30" as="geometry" />
        </mxCell>
      </root>
    </mxGraphModel>
  </diagram>
</mxfile>
